<svg width="21" height="20" viewBox="0 0 21 20" fill="none" xmlns="http://www.w3.org/2000/svg">
<path d="M10.5 0C4.70156 0 0 4.59375 0 10.2545C0 14.7857 3.00937 18.625 7.18125 19.9821C7.23977 19.9942 7.29949 20.0002 7.35938 20C7.74844 20 7.89844 19.7277 7.89844 19.4911C7.89844 19.2455 7.88906 18.6027 7.88437 17.7455C7.53705 17.8231 7.18173 17.8635 6.825 17.8661C4.80469 17.8661 4.34531 16.3705 4.34531 16.3705C3.86719 15.1875 3.17813 14.8705 3.17813 14.8705C2.26406 14.2589 3.17344 14.2411 3.24375 14.2411H3.24844C4.30313 14.3304 4.85625 15.3036 4.85625 15.3036C5.38125 16.1786 6.08437 16.4241 6.7125 16.4241C7.12783 16.4162 7.53673 16.3249 7.9125 16.1562C8.00625 15.4955 8.27812 15.0446 8.57812 14.7857C6.24844 14.5268 3.79688 13.6473 3.79688 9.71875C3.79688 8.59821 4.20469 7.68303 4.875 6.96875C4.76719 6.70982 4.40625 5.66518 4.97812 4.25446C5.05483 4.23698 5.13368 4.22947 5.2125 4.23214C5.59219 4.23214 6.45 4.37053 7.86563 5.30803C9.58572 4.84969 11.4049 4.84969 13.125 5.30803C14.5406 4.37053 15.3984 4.23214 15.7781 4.23214C15.857 4.22947 15.9358 4.23698 16.0125 4.25446C16.5844 5.66518 16.2234 6.70982 16.1156 6.96875C16.7859 7.6875 17.1937 8.60268 17.1937 9.71875C17.1937 13.6562 14.7375 14.5223 12.3984 14.7768C12.7734 15.0937 13.1109 15.7187 13.1109 16.6741C13.1109 18.0446 13.0969 19.1518 13.0969 19.4866C13.0969 19.7277 13.2422 20 13.6312 20C13.6942 20.0003 13.7571 19.9943 13.8187 19.9821C17.9953 18.625 21 14.7812 21 10.2545C21 4.59375 16.2984 0 10.5 0Z" fill="url(#paint0_linear_2020_9)"/>
<defs>
<linearGradient id="paint0_linear_2020_9" x1="10.5" y1="0" x2="10.5" y2="20" gradientUnits="userSpaceOnUse">
<stop offset="0.1" stop-color="#9751D3"/>
<stop offset="1" stop-color="#7532AF"/>
</linearGradient>
</defs>
</svg>
