<svg width="436" height="65" viewBox="0 0 436 65" fill="none" xmlns="http://www.w3.org/2000/svg">
<path d="M10.168 7.316V50.282H1.53482e-06V7.316H10.168ZM46.3121 17.36L35.9581 50.282H24.3641L13.7621 17.36H24.4261L30.2541 42.842L36.3301 17.36H46.3121ZM74.5366 40.734C74.5366 41.974 74.7019 42.8833 75.0326 43.462C75.4046 44.0407 75.9833 44.4747 76.7686 44.764L74.7226 51.15C72.6973 50.9847 71.0439 50.5507 69.7626 49.848C68.4813 49.104 67.4893 47.9467 66.7866 46.376C64.6373 49.6827 61.3306 51.336 56.8666 51.336C53.6013 51.336 50.9973 50.3853 49.0546 48.484C47.1119 46.5827 46.1406 44.1027 46.1406 41.044C46.1406 37.448 47.4633 34.6993 50.1086 32.798C52.7539 30.8967 56.5773 29.946 61.5786 29.946H64.9266V28.52C64.9266 26.5773 64.5133 25.2547 63.6866 24.552C62.8599 23.808 61.4133 23.436 59.3466 23.436C58.2719 23.436 56.9699 23.6013 55.4406 23.932C53.9113 24.2213 52.3406 24.6347 50.7286 25.172L48.4966 18.724C50.5633 17.9387 52.6713 17.3393 54.8206 16.926C57.0113 16.5127 59.0366 16.306 60.8966 16.306C65.6086 16.306 69.0599 17.2773 71.2506 19.22C73.4413 21.1627 74.5366 24.0767 74.5366 27.962V40.734ZM59.7186 44.33C61.9506 44.33 63.6866 43.276 64.9266 41.168V35.34H62.5086C60.2766 35.34 58.6026 35.7327 57.4866 36.518C56.4119 37.3033 55.8746 38.5227 55.8746 40.176C55.8746 41.4987 56.2053 42.532 56.8666 43.276C57.5693 43.9787 58.5199 44.33 59.7186 44.33ZM101.621 16.306C104.473 16.306 106.705 17.174 108.317 18.91C109.929 20.646 110.735 23.0847 110.735 26.226V50.282H100.939V27.9C100.939 26.2467 100.671 25.11 100.133 24.49C99.6374 23.8287 98.8727 23.498 97.8394 23.498C95.8554 23.498 93.9541 24.924 92.1354 27.776V50.282H82.3394V17.36H90.8954L91.5774 21.266C92.9827 19.6127 94.4914 18.3727 96.1034 17.546C97.7567 16.7193 99.5961 16.306 101.621 16.306ZM155.899 27.528C158.751 28.0653 161.066 29.1193 162.843 30.69C164.662 32.2607 165.571 34.6167 165.571 37.758C165.571 42.346 163.918 45.5907 160.611 47.492C157.346 49.352 152.758 50.282 146.847 50.282H133.021V7.316H145.173C151.208 7.316 155.817 8.184 158.999 9.92C162.182 11.6147 163.773 14.4047 163.773 18.29C163.773 20.8113 163.009 22.8573 161.479 24.428C159.991 25.9573 158.131 26.9907 155.899 27.528ZM143.189 14.508V24.49H146.971C151.27 24.49 153.419 22.754 153.419 19.282C153.419 17.546 152.841 16.3267 151.683 15.624C150.526 14.88 148.687 14.508 146.165 14.508H143.189ZM146.909 42.904C149.596 42.904 151.621 42.5113 152.985 41.726C154.391 40.8993 155.093 39.3907 155.093 37.2C155.093 33.232 152.613 31.248 147.653 31.248H143.189V42.904H146.909ZM197.265 40.734C197.265 41.974 197.43 42.8833 197.761 43.462C198.133 44.0407 198.712 44.4747 199.497 44.764L197.451 51.15C195.426 50.9847 193.772 50.5507 192.491 49.848C191.21 49.104 190.218 47.9467 189.515 46.376C187.366 49.6827 184.059 51.336 179.595 51.336C176.33 51.336 173.726 50.3853 171.783 48.484C169.84 46.5827 168.869 44.1027 168.869 41.044C168.869 37.448 170.192 34.6993 172.837 32.798C175.482 30.8967 179.306 29.946 184.307 29.946H187.655V28.52C187.655 26.5773 187.242 25.2547 186.415 24.552C185.588 23.808 184.142 23.436 182.075 23.436C181 23.436 179.698 23.6013 178.169 23.932C176.64 24.2213 175.069 24.6347 173.457 25.172L171.225 18.724C173.292 17.9387 175.4 17.3393 177.549 16.926C179.74 16.5127 181.765 16.306 183.625 16.306C188.337 16.306 191.788 17.2773 193.979 19.22C196.17 21.1627 197.265 24.0767 197.265 27.962V40.734ZM182.447 44.33C184.679 44.33 186.415 43.276 187.655 41.168V35.34H185.237C183.005 35.34 181.331 35.7327 180.215 36.518C179.14 37.3033 178.603 38.5227 178.603 40.176C178.603 41.4987 178.934 42.532 179.595 43.276C180.298 43.9787 181.248 44.33 182.447 44.33ZM223.668 16.306C227.801 16.306 230.881 17.8353 232.906 20.894C234.931 23.9527 235.944 28.2307 235.944 33.728C235.944 37.1173 235.407 40.1553 234.332 42.842C233.299 45.4873 231.79 47.5747 229.806 49.104C227.822 50.592 225.507 51.336 222.862 51.336C219.555 51.336 216.889 50.1993 214.864 47.926V62.992L205.068 64.046V17.36H213.686L214.182 21.018C215.463 19.406 216.931 18.228 218.584 17.484C220.237 16.6987 221.932 16.306 223.668 16.306ZM219.886 44.144C223.813 44.144 225.776 40.7133 225.776 33.852C225.776 29.9667 225.342 27.28 224.474 25.792C223.606 24.2627 222.304 23.498 220.568 23.498C219.452 23.498 218.398 23.8287 217.406 24.49C216.455 25.1513 215.608 26.102 214.864 27.342V41.23C216.187 43.1727 217.861 44.144 219.886 44.144ZM262.708 48.732C261.509 49.5587 260.104 50.1993 258.492 50.654C256.921 51.1087 255.351 51.336 253.78 51.336C246.588 51.2947 242.992 47.3267 242.992 39.432V24.18H238.342V17.36H242.992V10.23L252.788 9.114V17.36H260.352L259.298 24.18H252.788V39.308C252.788 40.8373 253.036 41.9327 253.532 42.594C254.028 43.2553 254.813 43.586 255.888 43.586C257.004 43.586 258.182 43.2347 259.422 42.532L262.708 48.732ZM275.774 17.36V50.282H265.978V17.36H275.774ZM270.814 -5.36442e-06C272.509 -5.36442e-06 273.893 0.537328 274.968 1.612C276.084 2.64533 276.642 3.968 276.642 5.58C276.642 7.192 276.084 8.53533 274.968 9.61C273.893 10.6433 272.509 11.16 270.814 11.16C269.119 11.16 267.735 10.6433 266.66 9.61C265.585 8.53533 265.048 7.192 265.048 5.58C265.048 3.968 265.585 2.64533 266.66 1.612C267.735 0.537328 269.119 -5.36442e-06 270.814 -5.36442e-06ZM295.07 16.306C297.426 16.306 299.637 16.6573 301.704 17.36C303.771 18.0627 305.589 19.0547 307.16 20.336L303.564 25.854C300.877 24.1593 298.17 23.312 295.442 23.312C294.161 23.312 293.169 23.5393 292.466 23.994C291.805 24.4073 291.474 25.0067 291.474 25.792C291.474 26.412 291.619 26.9287 291.908 27.342C292.239 27.714 292.879 28.1067 293.83 28.52C294.781 28.9333 296.248 29.4293 298.232 30.008C301.663 31 304.205 32.302 305.858 33.914C307.553 35.4847 308.4 37.6753 308.4 40.486C308.4 42.718 307.759 44.6607 306.478 46.314C305.197 47.926 303.44 49.166 301.208 50.034C298.976 50.902 296.496 51.336 293.768 51.336C290.999 51.336 288.415 50.902 286.018 50.034C283.662 49.166 281.657 47.9673 280.004 46.438L284.778 41.106C287.547 43.2553 290.461 44.33 293.52 44.33C295.008 44.33 296.165 44.0613 296.992 43.524C297.86 42.9867 298.294 42.222 298.294 41.23C298.294 40.4447 298.129 39.8247 297.798 39.37C297.467 38.9153 296.827 38.502 295.876 38.13C294.925 37.7167 293.417 37.2207 291.35 36.642C288.085 35.6913 285.646 34.3687 284.034 32.674C282.422 30.9793 281.616 28.8713 281.616 26.35C281.616 24.4487 282.153 22.754 283.228 21.266C284.344 19.7367 285.915 18.538 287.94 17.67C290.007 16.7607 292.383 16.306 295.07 16.306ZM334.093 48.732C332.894 49.5587 331.489 50.1993 329.877 50.654C328.306 51.1087 326.735 51.336 325.165 51.336C317.973 51.2947 314.377 47.3267 314.377 39.432V24.18H309.727V17.36H314.377V10.23L324.173 9.114V17.36H331.737L330.683 24.18H324.173V39.308C324.173 40.8373 324.421 41.9327 324.917 42.594C325.413 43.2553 326.198 43.586 327.273 43.586C328.389 43.586 329.567 43.2347 330.807 42.532L334.093 48.732ZM364.979 33.17C364.979 34.534 364.917 35.712 364.793 36.704H344.395C344.726 39.4733 345.511 41.416 346.751 42.532C347.991 43.648 349.706 44.206 351.897 44.206C353.22 44.206 354.501 43.9787 355.741 43.524C356.981 43.028 358.324 42.284 359.771 41.292L363.801 46.748C359.957 49.8067 355.679 51.336 350.967 51.336C345.635 51.336 341.543 49.7653 338.691 46.624C335.839 43.4827 334.413 39.2667 334.413 33.976C334.413 30.628 335.012 27.6313 336.211 24.986C337.41 22.2993 339.166 20.1913 341.481 18.662C343.796 17.0913 346.565 16.306 349.789 16.306C354.542 16.306 358.262 17.794 360.949 20.77C363.636 23.746 364.979 27.8793 364.979 33.17ZM355.369 30.38C355.286 25.3373 353.509 22.816 350.037 22.816C348.342 22.816 347.02 23.436 346.069 24.676C345.16 25.916 344.602 27.962 344.395 30.814H355.369V30.38ZM379.224 51.336C376.372 51.336 374.14 50.53 372.528 48.918C370.957 47.2647 370.172 44.9293 370.172 41.912V4.27799L379.968 3.22399V41.54C379.968 42.904 380.526 43.586 381.642 43.586C382.221 43.586 382.758 43.4827 383.254 43.276L385.176 50.22C383.399 50.964 381.415 51.336 379.224 51.336ZM397.63 51.336C394.778 51.336 392.546 50.53 390.934 48.918C389.364 47.2647 388.578 44.9293 388.578 41.912V4.27799L398.374 3.22399V41.54C398.374 42.904 398.932 43.586 400.048 43.586C400.627 43.586 401.164 43.4827 401.66 43.276L403.582 50.22C401.805 50.964 399.821 51.336 397.63 51.336ZM433.156 40.734C433.156 41.974 433.321 42.8833 433.652 43.462C434.024 44.0407 434.602 44.4747 435.388 44.764L433.342 51.15C431.316 50.9847 429.663 50.5507 428.382 49.848C427.1 49.104 426.108 47.9467 425.406 46.376C423.256 49.6827 419.95 51.336 415.486 51.336C412.22 51.336 409.616 50.3853 407.674 48.484C405.731 46.5827 404.76 44.1027 404.76 41.044C404.76 37.448 406.082 34.6993 408.728 32.798C411.373 30.8967 415.196 29.946 420.198 29.946H423.546V28.52C423.546 26.5773 423.132 25.2547 422.306 24.552C421.479 23.808 420.032 23.436 417.966 23.436C416.891 23.436 415.589 23.6013 414.06 23.932C412.53 24.2213 410.96 24.6347 409.348 25.172L407.116 18.724C409.182 17.9387 411.29 17.3393 413.44 16.926C415.63 16.5127 417.656 16.306 419.516 16.306C424.228 16.306 427.679 17.2773 429.87 19.22C432.06 21.1627 433.156 24.0767 433.156 27.962V40.734ZM418.338 44.33C420.57 44.33 422.306 43.276 423.546 41.168V35.34H421.128C418.896 35.34 417.222 35.7327 416.106 36.518C415.031 37.3033 414.494 38.5227 414.494 40.176C414.494 41.4987 414.824 42.532 415.486 43.276C416.188 43.9787 417.139 44.33 418.338 44.33Z" fill="#1A1A1A"/>
</svg>
