<svg width="21" height="20" viewBox="0 0 21 20" fill="none" xmlns="http://www.w3.org/2000/svg">
<path d="M19.3204 0H1.79437C0.836717 0 0 0.65625 0 1.55759V18.2862C0 19.1924 0.836717 20 1.79437 20H19.3153C20.2781 20 21 19.1871 21 18.2862V1.55759C21.0056 0.65625 20.2781 0 19.3204 0ZM6.50952 16.671H3.50109V7.7625H6.50952V16.671ZM5.10937 6.40804H5.0878C4.12499 6.40804 3.50156 5.72545 3.50156 4.87098C3.50156 4.00089 4.1414 3.33438 5.12577 3.33438C6.11015 3.33438 6.71249 3.99598 6.73405 4.87098C6.73358 5.72545 6.11015 6.40804 5.10937 6.40804ZM17.5045 16.671H14.4961V11.8C14.4961 10.633 14.0583 9.83571 12.9698 9.83571C12.1383 9.83571 11.6461 10.3714 11.4272 10.8933C11.3451 11.0808 11.3231 11.3362 11.3231 11.5969V16.671H8.31467V7.7625H11.3231V9.00223C11.7609 8.40848 12.4448 7.55402 14.0362 7.55402C16.0111 7.55402 17.505 8.79375 17.505 11.4665L17.5045 16.671Z" fill="url(#paint0_linear_2020_3)"/>
<defs>
<linearGradient id="paint0_linear_2020_3" x1="10.5" y1="0" x2="10.5" y2="20" gradientUnits="userSpaceOnUse">
<stop offset="0.1" stop-color="#9751D3"/>
<stop offset="1" stop-color="#7532AF"/>
</linearGradient>
</defs>
</svg>
