<svg width="115" height="47" viewBox="0 0 115 47" fill="none" xmlns="http://www.w3.org/2000/svg">
<path d="M10.656 0.647999V45H0.160004V0.647999H10.656Z" fill="black"/>
<path d="M47.966 11.016L37.278 45H25.31L14.366 11.016H25.374L31.39 37.32L37.662 11.016H47.966Z" fill="black"/>
<path d="M77.101 35.144C77.101 36.424 77.2717 37.3627 77.613 37.96C77.997 38.5573 78.5943 39.0053 79.405 39.304L77.293 45.896C75.2023 45.7253 73.4957 45.2773 72.173 44.552C70.8503 43.784 69.8263 42.5893 69.101 40.968C66.8823 44.3813 63.469 46.088 58.861 46.088C55.4903 46.088 52.8023 45.1067 50.797 43.144C48.7917 41.1813 47.789 38.6213 47.789 35.464C47.789 31.752 49.1543 28.9147 51.885 26.952C54.6157 24.9893 58.5623 24.008 63.725 24.008H67.181V22.536C67.181 20.5307 66.7543 19.1653 65.901 18.44C65.0477 17.672 63.5543 17.288 61.421 17.288C60.3117 17.288 58.9677 17.4587 57.389 17.8C55.8103 18.0987 54.189 18.5253 52.525 19.08L50.221 12.424C52.3543 11.6133 54.5303 10.9947 56.749 10.568C59.0103 10.1413 61.101 9.928 63.021 9.928C67.885 9.928 71.4477 10.9307 73.709 12.936C75.9703 14.9413 77.101 17.9493 77.101 21.96V35.144ZM61.805 38.856C64.109 38.856 65.901 37.768 67.181 35.592V29.576H64.685C62.381 29.576 60.653 29.9813 59.501 30.792C58.3917 31.6027 57.837 32.8613 57.837 34.568C57.837 35.9333 58.1783 37 58.861 37.768C59.5863 38.4933 60.5677 38.856 61.805 38.856Z" fill="black"/>
<path d="M105.06 9.928C108.004 9.928 110.308 10.824 111.972 12.616C113.636 14.408 114.468 16.9253 114.468 20.168V45H104.356V21.896C104.356 20.1893 104.078 19.016 103.524 18.376C103.012 17.6933 102.222 17.352 101.156 17.352C99.1075 17.352 97.1448 18.824 95.2675 21.768V45H85.1555V11.016H93.9875L94.6915 15.048C96.1422 13.3413 97.6995 12.0613 99.3635 11.208C101.07 10.3547 102.969 9.928 105.06 9.928Z" fill="black"/>
</svg>
