<svg width="21" height="20" viewBox="0 0 21 20" fill="none" xmlns="http://www.w3.org/2000/svg">
<path fill-rule="evenodd" clip-rule="evenodd" d="M17.9404 2.90629C16.9697 1.98132 15.8164 1.24835 14.547 0.749576C13.2777 0.2508 11.9172 -0.00393143 10.544 4.58658e-05C4.78124 4.58658e-05 0.0899998 4.44557 0.0876561 9.91074C0.0851067 11.651 0.566763 13.3608 1.48359 14.8661L0 20L5.54296 18.6219C7.07728 19.4135 8.79483 19.8278 10.5398 19.8272H10.544C16.3064 19.8272 20.9972 15.3813 21 9.91654C21.0035 8.61322 20.7348 7.32225 20.2095 6.11875C19.6843 4.91525 18.9129 3.82325 17.9404 2.90629V2.90629ZM10.544 18.1545H10.5403C8.9847 18.1549 7.45738 17.7584 6.11718 17.0063L5.79983 16.8277L2.51062 17.6455L3.38859 14.6058L3.18187 14.2933C2.31205 12.9818 1.85121 11.462 1.85297 9.91074C1.85297 5.36923 5.75343 1.67415 10.5473 1.67415C12.847 1.67024 15.0541 2.53644 16.6833 4.08223C18.3124 5.62803 19.2302 7.72682 19.2347 9.91699C19.2328 14.4589 15.3342 18.1545 10.544 18.1545ZM15.3108 11.9853C15.0497 11.8612 13.7639 11.2621 13.5258 11.1795C13.2876 11.0969 13.1119 11.0554 12.9379 11.3036C12.764 11.5518 12.2629 12.1072 12.1106 12.2746C11.9583 12.442 11.8059 12.4603 11.5448 12.3362C11.2837 12.2121 10.4414 11.9509 9.44342 11.1072C8.66671 10.4505 8.14264 9.63976 7.9903 9.39199C7.83796 9.14422 7.97389 9.00985 8.10467 8.88663C8.22233 8.77547 8.36577 8.59735 8.49655 8.4527C8.62733 8.30806 8.67092 8.20449 8.75764 8.03931C8.84436 7.87413 8.80124 7.72949 8.73608 7.60583C8.67092 7.48217 8.14827 6.26298 7.93077 5.767C7.71843 5.28396 7.50327 5.34959 7.34296 5.342C7.19061 5.33486 7.01483 5.33307 6.84186 5.33307C6.70964 5.33635 6.57954 5.36555 6.45969 5.41886C6.33984 5.47216 6.23282 5.54843 6.1453 5.64289C5.90577 5.8911 5.23077 6.4911 5.23077 7.70896C5.23077 8.92681 6.16827 10.1054 6.29765 10.2706C6.42702 10.4357 8.13983 12.9371 10.7606 14.0098C11.2473 14.2083 11.7445 14.3824 12.2503 14.5313C12.8761 14.7197 13.4456 14.6933 13.8956 14.6295C14.3976 14.5585 15.4425 14.0304 15.6595 13.4518C15.8765 12.8732 15.877 12.3777 15.8119 12.2746C15.7467 12.1714 15.5723 12.1089 15.3108 11.9853Z" fill="url(#paint0_linear_2020_10)"/>
<defs>
<linearGradient id="paint0_linear_2020_10" x1="10.5" y1="0" x2="10.5" y2="20" gradientUnits="userSpaceOnUse">
<stop offset="0.1" stop-color="#9751D3"/>
<stop offset="1" stop-color="#7532AF"/>
</linearGradient>
</defs>
</svg>
